STARTFONT 2.1
FONT -FontForge-Times Cyrillic-Normal-R-Normal--8-60-100-100-P-88-WinRoman-0
SIZE 6 100 100
FONTBOUNDINGBOX 16 10 0 -1
COMMENT "Generated by fontforge, http://fontforge.sourceforge.net"
COMMENT "Copyright (C) Steepler Ltd., 1990-92."
STARTPROPERTIES 34
FOUNDRY "FontForge"
FAMILY_NAME "Times Cyrillic"
WEIGHT_NAME "Normal"
SLANT "R"
SETWIDTH_NAME "Normal"
ADD_STYLE_NAME ""
PIXEL_SIZE 8
POINT_SIZE 60
RESOLUTION_X 100
RESOLUTION_Y 100
SPACING "P"
AVERAGE_WIDTH 88
CHARSET_REGISTRY "WinRoman"
CHARSET_ENCODING "0"
FONTNAME_REGISTRY ""
CHARSET_COLLECTIONS "WinRoman"
FONT_NAME "TimesCyrillic"
FACE_NAME "Times Cyrillic"
COPYRIGHT "Copyright (C) Steepler Ltd., 1990-92."
FONT_VERSION "001.000"
FONT_ASCENT 6
FONT_DESCENT 2
UNDERLINE_POSITION -1
UNDERLINE_THICKNESS 1
X_HEIGHT 4
CAP_HEIGHT 6
RAW_ASCENT 800
RAW_DESCENT 200
NORM_SPACE 3
RELATIVE_WEIGHT 40
RELATIVE_SETWIDTH 50
FIGURE_WIDTH 8
AVG_LOWERCASE_WIDTH 86
AVG_UPPERCASE_WIDTH 117
ENDPROPERTIES
CHARS 224
STARTCHAR space
ENCODING 32
SWIDTH 500 0
DWIDTH 3 0
BBX 1 1 2 -1
BITMAP
00
ENDCHAR
STARTCHAR exclam
ENCODING 33
SWIDTH 562 0
DWIDTH 4 0
BBX 2 7 1 0
BITMAP
C0
C0
C0
C0
C0
00
C0
ENDCHAR
STARTCHAR quotedbl
ENCODING 34
SWIDTH 688 0
DWIDTH 7 0
BBX 5 3 1 4
BITMAP
D8
D8
D8
ENDCHAR
STARTCHAR numbersign
ENCODING 35
SWIDTH 1562 0
DWIDTH 12 0
BBX 10 7 1 0
BITMAP
1980
1980
7FC0
3300
FF80
6600
6600
ENDCHAR
STARTCHAR dollar
ENCODING 36
SWIDTH 1000 0
DWIDTH 8 0
BBX 6 8 1 -1
BITMAP
10
7C
D0
78
2C
AC
F8
20
ENDCHAR
STARTCHAR percent
ENCODING 37
SWIDTH 1812 0
DWIDTH 16 0
BBX 14 7 1 0
BITMAP
3860
64C0
C980
7338
0664
0CC8
1870
ENDCHAR
STARTCHAR ampersand
ENCODING 38
SWIDTH 1562 0
DWIDTH 13 0
BBX 11 7 1 0
BITMAP
1E00
3300
1E00
3CE0
C640
C380
7EE0
ENDCHAR
STARTCHAR quotesingle
ENCODING 39
SWIDTH 500 0
DWIDTH 4 0
BBX 2 3 1 4
BITMAP
C0
C0
C0
ENDCHAR
STARTCHAR parenleft
ENCODING 40
SWIDTH 688 0
DWIDTH 6 0
BBX 3 8 2 -1
BITMAP
20
40
C0
C0
C0
C0
40
20
ENDCHAR
STARTCHAR parenright
ENCODING 41
SWIDTH 688 0
DWIDTH 6 0
BBX 3 8 1 -1
BITMAP
80
40
60
60
60
60
40
80
ENDCHAR
STARTCHAR asterisk
ENCODING 42
SWIDTH 1000 0
DWIDTH 7 0
BBX 7 4 0 3
BITMAP
10
D6
38
6C
ENDCHAR
STARTCHAR plus
ENCODING 43
SWIDTH 1188 0
DWIDTH 10 0
BBX 8 5 1 0
BITMAP
18
18
FF
18
18
ENDCHAR
STARTCHAR comma
ENCODING 44
SWIDTH 500 0
DWIDTH 4 0
BBX 2 2 1 -1
BITMAP
C0
40
ENDCHAR
STARTCHAR hyphen
ENCODING 45
SWIDTH 625 0
DWIDTH 5 0
BBX 5 1 0 2
BITMAP
F8
ENDCHAR
STARTCHAR period
ENCODING 46
SWIDTH 500 0
DWIDTH 4 0
BBX 2 1 1 0
BITMAP
C0
ENDCHAR
STARTCHAR slash
ENCODING 47
SWIDTH 562 0
DWIDTH 4 0
BBX 4 8 0 -1
BITMAP
30
30
20
60
60
40
C0
C0
ENDCHAR
STARTCHAR zero
ENCODING 48
SWIDTH 1000 0
DWIDTH 8 0
BBX 6 7 1 0
BITMAP
30
48
CC
CC
CC
48
30
ENDCHAR
STARTCHAR one
ENCODING 49
SWIDTH 1000 0
DWIDTH 8 0
BBX 4 7 2 0
BITMAP
60
E0
60
60
60
60
F0
ENDCHAR
STARTCHAR two
ENCODING 50
SWIDTH 1000 0
DWIDTH 8 0
BBX 6 7 1 0
BITMAP
78
8C
0C
08
30
44
FC
ENDCHAR
STARTCHAR three
ENCODING 51
SWIDTH 1000 0
DWIDTH 8 0
BBX 6 7 1 0
BITMAP
78
8C
08
38
0C
CC
70
ENDCHAR
STARTCHAR four
ENCODING 52
SWIDTH 1000 0
DWIDTH 8 0
BBX 6 7 1 0
BITMAP
18
38
58
98
FC
18
18
ENDCHAR
STARTCHAR five
ENCODING 53
SWIDTH 1000 0
DWIDTH 8 0
BBX 6 7 1 0
BITMAP
3C
40
F8
0C
0C
C8
70
ENDCHAR
STARTCHAR six
ENCODING 54
SWIDTH 1000 0
DWIDTH 8 0
BBX 6 7 1 0
BITMAP
38
60
C0
F8
CC
CC
78
ENDCHAR
STARTCHAR seven
ENCODING 55
SWIDTH 1000 0
DWIDTH 8 0
BBX 6 7 1 0
BITMAP
FC
8C
18
18
30
30
30
ENDCHAR
STARTCHAR eight
ENCODING 56
SWIDTH 1000 0
DWIDTH 8 0
BBX 6 7 1 0
BITMAP
78
CC
CC
78
CC
CC
78
ENDCHAR
STARTCHAR nine
ENCODING 57
SWIDTH 1000 0
DWIDTH 8 0
BBX 6 7 1 0
BITMAP
78
CC
CC
7C
0C
18
70
ENDCHAR
STARTCHAR colon
ENCODING 58
SWIDTH 562 0
DWIDTH 4 0
BBX 2 5 1 0
BITMAP
C0
00
00
00
C0
ENDCHAR
STARTCHAR semicolon
ENCODING 59
SWIDTH 562 0
DWIDTH 4 0
BBX 2 6 1 -1
BITMAP
C0
00
00
00
C0
40
ENDCHAR
STARTCHAR less
ENCODING 60
SWIDTH 1188 0
DWIDTH 9 0
BBX 7 5 1 0
BITMAP
0E
38
E0
38
0E
ENDCHAR
STARTCHAR equal
ENCODING 61
SWIDTH 1188 0
DWIDTH 10 0
BBX 8 3 1 1
BITMAP
FF
00
FF
ENDCHAR
STARTCHAR greater
ENCODING 62
SWIDTH 1188 0
DWIDTH 9 0
BBX 7 5 1 0
BITMAP
E0
38
0E
38
E0
ENDCHAR
STARTCHAR question
ENCODING 63
SWIDTH 1000 0
DWIDTH 8 0
BBX 6 7 1 0
BITMAP
78
CC
0C
18
30
00
30
ENDCHAR
STARTCHAR at
ENCODING 64
SWIDTH 2000 0
DWIDTH 16 0
BBX 14 8 1 -1
BITMAP
1FE0
6018
C36C
CCC4
D98C
CF78
6000
1F00
ENDCHAR
STARTCHAR A
ENCODING 65
SWIDTH 1562 0
DWIDTH 13 0
BBX 13 7 0 0
BITMAP
0200
0700
0980
10C0
3FE0
4030
E078
ENDCHAR
STARTCHAR B
ENCODING 66
SWIDTH 1375 0
DWIDTH 11 0
BBX 9 7 1 0
BITMAP
FE00
6180
6180
7E00
6180
6180
FE00
ENDCHAR
STARTCHAR C
ENCODING 67
SWIDTH 1438 0
DWIDTH 11 0
BBX 9 7 1 0
BITMAP
1E80
6180
C080
C000
C000
6180
1E00
ENDCHAR
STARTCHAR D
ENCODING 68
SWIDTH 1625 0
DWIDTH 13 0
BBX 11 7 1 0
BITMAP
FF00
60C0
6060
6060
6060
60C0
FF00
ENDCHAR
STARTCHAR E
ENCODING 69
SWIDTH 1375 0
DWIDTH 11 0
BBX 9 7 1 0
BITMAP
FF80
6080
6400
7C00
6400
6080
FF80
ENDCHAR
STARTCHAR F
ENCODING 70
SWIDTH 1250 0
DWIDTH 10 0
BBX 8 7 1 0
BITMAP
FF
61
64
7C
64
60
F0
ENDCHAR
STARTCHAR G
ENCODING 71
SWIDTH 1562 0
DWIDTH 13 0
BBX 11 7 1 0
BITMAP
1F40
60C0
C040
C000
C1E0
60C0
1F80
ENDCHAR
STARTCHAR H
ENCODING 72
SWIDTH 1625 0
DWIDTH 13 0
BBX 11 7 1 0
BITMAP
F1E0
60C0
60C0
7FC0
60C0
60C0
F1E0
ENDCHAR
STARTCHAR I
ENCODING 73
SWIDTH 750 0
DWIDTH 6 0
BBX 4 7 1 0
BITMAP
F0
60
60
60
60
60
F0
ENDCHAR
STARTCHAR J
ENCODING 74
SWIDTH 812 0
DWIDTH 8 0
BBX 6 7 1 0
BITMAP
3C
18
18
18
18
D8
60
ENDCHAR
STARTCHAR K
ENCODING 75
SWIDTH 1438 0
DWIDTH 11 0
BBX 10 7 1 0
BITMAP
F380
6600
6C00
7C00
6600
6300
F7C0
ENDCHAR
STARTCHAR L
ENCODING 76
SWIDTH 1312 0
DWIDTH 10 0
BBX 8 7 1 0
BITMAP
F0
60
60
60
60
61
FF
ENDCHAR
STARTCHAR M
ENCODING 77
SWIDTH 1875 0
DWIDTH 15 0
BBX 13 7 1 0
BITMAP
E038
7070
58B0
4D30
4630
4030
E078
ENDCHAR
STARTCHAR N
ENCODING 78
SWIDTH 1562 0
DWIDTH 12 0
BBX 10 7 1 0
BITMAP
E1C0
7080
5880
4C80
4680
4380
E180
ENDCHAR
STARTCHAR O
ENCODING 79
SWIDTH 1562 0
DWIDTH 13 0
BBX 11 7 1 0
BITMAP
1F00
60C0
C060
C060
C060
60C0
1F00
ENDCHAR
STARTCHAR P
ENCODING 80
SWIDTH 1188 0
DWIDTH 11 0
BBX 9 7 1 0
BITMAP
FE00
6180
6180
7E00
6000
6000
F000
ENDCHAR
STARTCHAR Q
ENCODING 81
SWIDTH 1562 0
DWIDTH 13 0
BBX 11 8 1 -1
BITMAP
1F00
60C0
C060
C060
C060
60C0
1F00
01C0
ENDCHAR
STARTCHAR R
ENCODING 82
SWIDTH 1500 0
DWIDTH 12 0
BBX 10 7 1 0
BITMAP
FE00
6180
6180
7E00
6300
6180
F0C0
ENDCHAR
STARTCHAR S
ENCODING 83
SWIDTH 1125 0
DWIDTH 9 0
BBX 7 7 1 0
BITMAP
3A
C6
C0
38
06
C6
B8
ENDCHAR
STARTCHAR T
ENCODING 84
SWIDTH 1250 0
DWIDTH 10 0
BBX 8 7 1 0
BITMAP
FF
99
18
18
18
18
3C
ENDCHAR
STARTCHAR U
ENCODING 85
SWIDTH 1625 0
DWIDTH 13 0
BBX 11 7 1 0
BITMAP
F0E0
6040
6040
6040
6040
3080
1F00
ENDCHAR
STARTCHAR V
ENCODING 86
SWIDTH 1562 0
DWIDTH 15 0
BBX 13 7 1 0
BITMAP
F038
6010
3020
1840
0C80
0700
0200
ENDCHAR
STARTCHAR W
ENCODING 87
SWIDTH 2000 0
DWIDTH 16 0
BBX 16 7 0 0
BITMAP
F3C7
6182
31C4
32C4
1A68
1C78
0C30
ENDCHAR
STARTCHAR X
ENCODING 88
SWIDTH 1562 0
DWIDTH 13 0
BBX 11 7 1 0
BITMAP
F1E0
3880
1D00
0E00
1380
21C0
F0E0
ENDCHAR
STARTCHAR Y
ENCODING 89
SWIDTH 1500 0
DWIDTH 12 0
BBX 10 7 1 0
BITMAP
F1C0
6080
3100
1A00
0C00
0C00
1E00
ENDCHAR
STARTCHAR Z
ENCODING 90
SWIDTH 1438 0
DWIDTH 10 0
BBX 8 7 1 0
BITMAP
FF
86
0C
18
30
61
FF
ENDCHAR
STARTCHAR bracketleft
ENCODING 91
SWIDTH 625 0
DWIDTH 5 0
BBX 3 8 1 -1
BITMAP
E0
C0
C0
C0
C0
C0
C0
E0
ENDCHAR
STARTCHAR backslash
ENCODING 92
SWIDTH 562 0
DWIDTH 4 0
BBX 4 8 0 -1
BITMAP
C0
C0
40
60
60
20
30
30
ENDCHAR
STARTCHAR bracketright
ENCODING 93
SWIDTH 625 0
DWIDTH 5 0
BBX 3 8 1 -1
BITMAP
E0
60
60
60
60
60
60
E0
ENDCHAR
STARTCHAR asciicircum
ENCODING 94
SWIDTH 1000 0
DWIDTH 9 0
BBX 7 3 1 4
BITMAP
38
6C
C6
ENDCHAR
STARTCHAR underscore
ENCODING 95
SWIDTH 1000 0
DWIDTH 8 0
BBX 8 1 0 -1
BITMAP
FF
ENDCHAR
STARTCHAR grave
ENCODING 96
SWIDTH 1000 0
DWIDTH 8 0
BBX 4 2 2 6
BITMAP
C0
30
ENDCHAR
STARTCHAR a
ENCODING 97
SWIDTH 1000 0
DWIDTH 8 0
BBX 7 5 1 0
BITMAP
78
CC
3C
CC
76
ENDCHAR
STARTCHAR b
ENCODING 98
SWIDTH 1062 0
DWIDTH 9 0
BBX 8 7 1 0
BITMAP
E0
60
6E
73
63
62
3C
ENDCHAR
STARTCHAR c
ENCODING 99
SWIDTH 875 0
DWIDTH 6 0
BBX 5 5 1 0
BITMAP
30
58
C0
C8
70
ENDCHAR
STARTCHAR d
ENCODING 100
SWIDTH 1125 0
DWIDTH 8 0
BBX 7 7 1 0
BITMAP
0E
06
36
4E
C6
CE
76
ENDCHAR
STARTCHAR e
ENCODING 101
SWIDTH 938 0
DWIDTH 7 0
BBX 6 5 1 0
BITMAP
38
4C
FC
C0
78
ENDCHAR
STARTCHAR f
ENCODING 102
SWIDTH 625 0
DWIDTH 4 0
BBX 4 7 0 0
BITMAP
30
60
F0
60
60
60
70
ENDCHAR
STARTCHAR g
ENCODING 103
SWIDTH 1000 0
DWIDTH 7 0
BBX 6 6 1 -1
BITMAP
38
CC
CC
7C
0C
70
ENDCHAR
STARTCHAR h
ENCODING 104
SWIDTH 1125 0
DWIDTH 10 0
BBX 9 7 1 0
BITMAP
E000
6000
6E00
7300
6300
6300
7380
ENDCHAR
STARTCHAR i
ENCODING 105
SWIDTH 562 0
DWIDTH 5 0
BBX 4 7 1 0
BITMAP
60
00
E0
60
60
60
70
ENDCHAR
STARTCHAR j
ENCODING 106
SWIDTH 438 0
DWIDTH 5 0
BBX 4 8 0 -1
BITMAP
30
00
70
30
30
30
30
E0
ENDCHAR
STARTCHAR k
ENCODING 107
SWIDTH 1062 0
DWIDTH 9 0
BBX 8 7 1 0
BITMAP
E0
60
66
68
7C
66
73
ENDCHAR
STARTCHAR l
ENCODING 108
SWIDTH 562 0
DWIDTH 5 0
BBX 4 7 1 0
BITMAP
E0
60
60
60
60
60
70
ENDCHAR
STARTCHAR m
ENCODING 109
SWIDTH 1688 0
DWIDTH 13 0
BBX 12 5 1 0
BITMAP
DDC0
6660
6660
6660
7770
ENDCHAR
STARTCHAR n
ENCODING 110
SWIDTH 1125 0
DWIDTH 10 0
BBX 9 5 1 0
BITMAP
EE00
7300
6300
6300
7380
ENDCHAR
STARTCHAR o
ENCODING 111
SWIDTH 1000 0
DWIDTH 8 0
BBX 7 5 1 0
BITMAP
3C
46
C6
C4
78
ENDCHAR
STARTCHAR p
ENCODING 112
SWIDTH 1125 0
DWIDTH 9 0
BBX 8 6 1 -1
BITMAP
DE
63
63
7C
60
70
ENDCHAR
STARTCHAR q
ENCODING 113
SWIDTH 1062 0
DWIDTH 8 0
BBX 7 6 1 -1
BITMAP
3E
C6
C6
7E
06
0E
ENDCHAR
STARTCHAR r
ENCODING 114
SWIDTH 812 0
DWIDTH 7 0
BBX 6 5 1 0
BITMAP
EC
74
60
60
70
ENDCHAR
STARTCHAR s
ENCODING 115
SWIDTH 750 0
DWIDTH 6 0
BBX 5 5 1 0
BITMAP
78
C0
70
18
F0
ENDCHAR
STARTCHAR t
ENCODING 116
SWIDTH 625 0
DWIDTH 5 0
BBX 4 6 1 0
BITMAP
60
F0
60
60
60
30
ENDCHAR
STARTCHAR u
ENCODING 117
SWIDTH 1125 0
DWIDTH 10 0
BBX 9 5 1 0
BITMAP
E700
6300
6300
6700
3B80
ENDCHAR
STARTCHAR v
ENCODING 118
SWIDTH 938 0
DWIDTH 9 0
BBX 8 5 1 0
BITMAP
F7
62
34
3C
18
ENDCHAR
STARTCHAR w
ENCODING 119
SWIDTH 1375 0
DWIDTH 13 0
BBX 12 5 1 0
BITMAP
E670
6620
6B40
39C0
3180
ENDCHAR
STARTCHAR x
ENCODING 120
SWIDTH 938 0
DWIDTH 8 0
BBX 7 5 1 0
BITMAP
E6
6C
38
6C
CE
ENDCHAR
STARTCHAR y
ENCODING 121
SWIDTH 938 0
DWIDTH 9 0
BBX 8 6 1 -1
BITMAP
F7
62
34
1C
08
70
ENDCHAR
STARTCHAR z
ENCODING 122
SWIDTH 875 0
DWIDTH 7 0
BBX 6 5 1 0
BITMAP
FC
18
30
60
FC
ENDCHAR
STARTCHAR braceleft
ENCODING 123
SWIDTH 688 0
DWIDTH 8 0
BBX 5 8 1 -1
BITMAP
18
30
30
E0
30
30
30
18
ENDCHAR
STARTCHAR bar
ENCODING 124
SWIDTH 562 0
DWIDTH 8 0
BBX 2 8 3 -1
BITMAP
C0
C0
C0
C0
C0
C0
C0
C0
ENDCHAR
STARTCHAR braceright
ENCODING 125
SWIDTH 688 0
DWIDTH 8 0
BBX 5 8 2 -1
BITMAP
C0
60
60
38
60
60
60
C0
ENDCHAR
STARTCHAR asciitilde
ENCODING 126
SWIDTH 1000 0
DWIDTH 10 0
BBX 8 2 1 5
BITMAP
73
CE
ENDCHAR
STARTCHAR uni007F
ENCODING 127
SWIDTH 562 0
DWIDTH 5 0
BBX 3 7 1 0
BITMAP
E0
E0
E0
E0
E0
E0
E0
ENDCHAR
STARTCHAR Euro
ENCODING 128
SWIDTH 562 0
DWIDTH 5 0
BBX 3 7 1 0
BITMAP
E0
E0
E0
E0
E0
E0
E0
ENDCHAR
STARTCHAR NameMe.129
ENCODING 129
SWIDTH 562 0
DWIDTH 5 0
BBX 3 7 1 0
BITMAP
E0
E0
E0
E0
E0
E0
E0
ENDCHAR
STARTCHAR quotesinglbase
ENCODING 130
SWIDTH 562 0
DWIDTH 5 0
BBX 3 7 1 0
BITMAP
E0
E0
E0
E0
E0
E0
E0
ENDCHAR
STARTCHAR florin
ENCODING 131
SWIDTH 562 0
DWIDTH 5 0
BBX 3 7 1 0
BITMAP
E0
E0
E0
E0
E0
E0
E0
ENDCHAR
STARTCHAR quotedblbase
ENCODING 132
SWIDTH 562 0
DWIDTH 5 0
BBX 3 7 1 0
BITMAP
E0
E0
E0
E0
E0
E0
E0
ENDCHAR
STARTCHAR ellipsis
ENCODING 133
SWIDTH 562 0
DWIDTH 5 0
BBX 3 7 1 0
BITMAP
E0
E0
E0
E0
E0
E0
E0
ENDCHAR
STARTCHAR dagger
ENCODING 134
SWIDTH 562 0
DWIDTH 5 0
BBX 3 7 1 0
BITMAP
E0
E0
E0
E0
E0
E0
E0
ENDCHAR
STARTCHAR daggerdbl
ENCODING 135
SWIDTH 562 0
DWIDTH 5 0
BBX 3 7 1 0
BITMAP
E0
E0
E0
E0
E0
E0
E0
ENDCHAR
STARTCHAR circumflex
ENCODING 136
SWIDTH 562 0
DWIDTH 5 0
BBX 3 7 1 0
BITMAP
E0
E0
E0
E0
E0
E0
E0
ENDCHAR
STARTCHAR perthousand
ENCODING 137
SWIDTH 562 0
DWIDTH 5 0
BBX 3 7 1 0
BITMAP
E0
E0
E0
E0
E0
E0
E0
ENDCHAR
STARTCHAR Scaron
ENCODING 138
SWIDTH 562 0
DWIDTH 5 0
BBX 3 7 1 0
BITMAP
E0
E0
E0
E0
E0
E0
E0
ENDCHAR
STARTCHAR guilsinglleft
ENCODING 139
SWIDTH 562 0
DWIDTH 5 0
BBX 3 7 1 0
BITMAP
E0
E0
E0
E0
E0
E0
E0
ENDCHAR
STARTCHAR OE
ENCODING 140
SWIDTH 562 0
DWIDTH 5 0
BBX 3 7 1 0
BITMAP
E0
E0
E0
E0
E0
E0
E0
ENDCHAR
STARTCHAR NameMe.141
ENCODING 141
SWIDTH 562 0
DWIDTH 5 0
BBX 3 7 1 0
BITMAP
E0
E0
E0
E0
E0
E0
E0
ENDCHAR
STARTCHAR Zcaron
ENCODING 142
SWIDTH 562 0
DWIDTH 5 0
BBX 3 7 1 0
BITMAP
E0
E0
E0
E0
E0
E0
E0
ENDCHAR
STARTCHAR NameMe.143
ENCODING 143
SWIDTH 562 0
DWIDTH 5 0
BBX 3 7 1 0
BITMAP
E0
E0
E0
E0
E0
E0
E0
ENDCHAR
STARTCHAR NameMe.144
ENCODING 144
SWIDTH 562 0
DWIDTH 5 0
BBX 3 7 1 0
BITMAP
E0
E0
E0
E0
E0
E0
E0
ENDCHAR
STARTCHAR quoteleft
ENCODING 145
SWIDTH 500 0
DWIDTH 4 0
BBX 2 2 1 5
BITMAP
80
C0
ENDCHAR
STARTCHAR quoteright
ENCODING 146
SWIDTH 500 0
DWIDTH 4 0
BBX 2 2 1 5
BITMAP
C0
40
ENDCHAR
STARTCHAR quotedblleft
ENCODING 147
SWIDTH 562 0
DWIDTH 5 0
BBX 3 7 1 0
BITMAP
E0
E0
E0
E0
E0
E0
E0
ENDCHAR
STARTCHAR quotedblright
ENCODING 148
SWIDTH 562 0
DWIDTH 5 0
BBX 3 7 1 0
BITMAP
E0
E0
E0
E0
E0
E0
E0
ENDCHAR
STARTCHAR bullet
ENCODING 149
SWIDTH 562 0
DWIDTH 5 0
BBX 3 7 1 0
BITMAP
E0
E0
E0
E0
E0
E0
E0
ENDCHAR
STARTCHAR endash
ENCODING 150
SWIDTH 562 0
DWIDTH 5 0
BBX 3 7 1 0
BITMAP
E0
E0
E0
E0
E0
E0
E0
ENDCHAR
STARTCHAR emdash
ENCODING 151
SWIDTH 562 0
DWIDTH 5 0
BBX 3 7 1 0
BITMAP
E0
E0
E0
E0
E0
E0
E0
ENDCHAR
STARTCHAR tilde
ENCODING 152
SWIDTH 562 0
DWIDTH 5 0
BBX 3 7 1 0
BITMAP
E0
E0
E0
E0
E0
E0
E0
ENDCHAR
STARTCHAR trademark
ENCODING 153
SWIDTH 562 0
DWIDTH 5 0
BBX 3 7 1 0
BITMAP
E0
E0
E0
E0
E0
E0
E0
ENDCHAR
STARTCHAR scaron
ENCODING 154
SWIDTH 562 0
DWIDTH 5 0
BBX 3 7 1 0
BITMAP
E0
E0
E0
E0
E0
E0
E0
ENDCHAR
STARTCHAR guilsinglright
ENCODING 155
SWIDTH 562 0
DWIDTH 5 0
BBX 3 7 1 0
BITMAP
E0
E0
E0
E0
E0
E0
E0
ENDCHAR
STARTCHAR oe
ENCODING 156
SWIDTH 562 0
DWIDTH 5 0
BBX 3 7 1 0
BITMAP
E0
E0
E0
E0
E0
E0
E0
ENDCHAR
STARTCHAR NameMe.157
ENCODING 157
SWIDTH 562 0
DWIDTH 5 0
BBX 3 7 1 0
BITMAP
E0
E0
E0
E0
E0
E0
E0
ENDCHAR
STARTCHAR zcaron
ENCODING 158
SWIDTH 562 0
DWIDTH 5 0
BBX 3 7 1 0
BITMAP
E0
E0
E0
E0
E0
E0
E0
ENDCHAR
STARTCHAR Ydieresis
ENCODING 159
SWIDTH 562 0
DWIDTH 5 0
BBX 3 7 1 0
BITMAP
E0
E0
E0
E0
E0
E0
E0
ENDCHAR
STARTCHAR uni00A0
ENCODING 160
SWIDTH 500 0
DWIDTH 3 0
BBX 1 1 2 -1
BITMAP
00
ENDCHAR
STARTCHAR exclamdown
ENCODING 161
SWIDTH 1375 0
DWIDTH 11 0
BBX 9 9 1 0
BITMAP
6300
0000
FF80
6080
6400
7C00
6400
6080
FF80
ENDCHAR
STARTCHAR cent
ENCODING 162
SWIDTH 1000 0
DWIDTH 8 0
BBX 6 7 1 -1
BITMAP
08
78
CC
D0
E0
78
40
ENDCHAR
STARTCHAR sterling
ENCODING 163
SWIDTH 1000 0
DWIDTH 8 0
BBX 7 7 1 0
BITMAP
7C
C4
60
F8
60
76
DC
ENDCHAR
STARTCHAR currency
ENCODING 164
SWIDTH 1188 0
DWIDTH 9 0
BBX 7 6 1 1
BITMAP
82
7C
44
44
7C
82
ENDCHAR
STARTCHAR yen
ENCODING 165
SWIDTH 1312 0
DWIDTH 12 0
BBX 10 7 1 0
BITMAP
F3C0
6180
3300
FFC0
0C00
0C00
1E00
ENDCHAR
STARTCHAR brokenbar
ENCODING 166
SWIDTH 562 0
DWIDTH 8 0
BBX 2 7 3 0
BITMAP
C0
C0
C0
00
C0
C0
C0
ENDCHAR
STARTCHAR section
ENCODING 167
SWIDTH 1000 0
DWIDTH 8 0
BBX 6 8 1 -1
BITMAP
7C
C4
70
CC
CC
38
8C
F8
ENDCHAR
STARTCHAR dieresis
ENCODING 168
SWIDTH 1000 0
DWIDTH 8 0
BBX 6 1 1 6
BITMAP
CC
ENDCHAR
STARTCHAR copyright
ENCODING 169
SWIDTH 1500 0
DWIDTH 13 0
BBX 11 8 1 -1
BITMAP
3F80
4040
9F20
B0A0
B020
9F20
4040
3F80
ENDCHAR
STARTCHAR ordfeminine
ENCODING 170
SWIDTH 688 0
DWIDTH 6 0
BBX 5 7 0 0
BITMAP
70
18
78
D8
78
00
F8
ENDCHAR
STARTCHAR guillemotleft
ENCODING 171
SWIDTH 938 0
DWIDTH 8 0
BBX 6 3 1 1
BITMAP
6C
D8
6C
ENDCHAR
STARTCHAR logicalnot
ENCODING 172
SWIDTH 1188 0
DWIDTH 10 0
BBX 8 2 1 2
BITMAP
FF
03
ENDCHAR
STARTCHAR uni00AD
ENCODING 173
SWIDTH 625 0
DWIDTH 5 0
BBX 5 1 0 2
BITMAP
F8
ENDCHAR
STARTCHAR registered
ENCODING 174
SWIDTH 1500 0
DWIDTH 13 0
BBX 11 8 1 -1
BITMAP
3F80
4040
9F20
B1A0
BF20
B1A0
4040
3F80
ENDCHAR
STARTCHAR macron
ENCODING 175
SWIDTH 1000 0
DWIDTH 8 0
BBX 8 1 0 8
BITMAP
FF
ENDCHAR
STARTCHAR degree
ENCODING 176
SWIDTH 625 0
DWIDTH 5 0
BBX 4 3 0 4
BITMAP
60
90
60
ENDCHAR
STARTCHAR plusminus
ENCODING 177
SWIDTH 1188 0
DWIDTH 10 0
BBX 8 5 1 0
BITMAP
18
FF
18
00
FF
ENDCHAR
STARTCHAR uni00B2
ENCODING 178
SWIDTH 625 0
DWIDTH 5 0
BBX 4 5 0 2
BITMAP
E0
30
60
C0
F0
ENDCHAR
STARTCHAR uni00B3
ENCODING 179
SWIDTH 625 0
DWIDTH 5 0
BBX 4 5 0 2
BITMAP
E0
30
60
30
E0
ENDCHAR
STARTCHAR acute
ENCODING 180
SWIDTH 1000 0
DWIDTH 8 0
BBX 4 2 2 6
BITMAP
30
C0
ENDCHAR
STARTCHAR mu
ENCODING 181
SWIDTH 1000 0
DWIDTH 10 0
BBX 8 6 1 -1
BITMAP
CC
CC
CC
CD
F3
C0
ENDCHAR
STARTCHAR paragraph
ENCODING 182
SWIDTH 1000 0
DWIDTH 8 0
BBX 6 7 1 0
BITMAP
7C
E8
E8
68
28
28
28
ENDCHAR
STARTCHAR periodcentered
ENCODING 183
SWIDTH 500 0
DWIDTH 4 0
BBX 2 1 1 3
BITMAP
C0
ENDCHAR
STARTCHAR cedilla
ENCODING 184
SWIDTH 1000 0
DWIDTH 8 0
BBX 3 1 3 -1
BITMAP
E0
ENDCHAR
STARTCHAR uni00B9
ENCODING 185
SWIDTH 625 0
DWIDTH 5 0
BBX 4 5 0 2
BITMAP
60
E0
60
60
F0
ENDCHAR
STARTCHAR ordmasculine
ENCODING 186
SWIDTH 688 0
DWIDTH 5 0
BBX 5 7 0 0
BITMAP
70
D8
D8
D8
70
00
F8
ENDCHAR
STARTCHAR guillemotright
ENCODING 187
SWIDTH 938 0
DWIDTH 8 0
BBX 6 3 1 1
BITMAP
D8
6C
D8
ENDCHAR
STARTCHAR onequarter
ENCODING 188
SWIDTH 1625 0
DWIDTH 15 0
BBX 14 7 0 0
BITMAP
6060
E0C0
618C
636C
F67C
0C0C
180C
ENDCHAR
STARTCHAR onehalf
ENCODING 189
SWIDTH 1625 0
DWIDTH 15 0
BBX 14 7 0 0
BITMAP
6060
E0C0
61B8
630C
F618
0C30
183C
ENDCHAR
STARTCHAR threequarters
ENCODING 190
SWIDTH 1625 0
DWIDTH 15 0
BBX 14 7 0 0
BITMAP
E060
30C0
618C
336C
E67C
0C0C
180C
ENDCHAR
STARTCHAR questiondown
ENCODING 191
SWIDTH 938 0
DWIDTH 8 0
BBX 6 7 1 0
BITMAP
48
00
78
CC
FC
C0
78
ENDCHAR
STARTCHAR Agrave
ENCODING 192
SWIDTH 1562 0
DWIDTH 13 0
BBX 13 7 0 0
BITMAP
0200
0700
0D80
18C0
3FE0
6030
E078
ENDCHAR
STARTCHAR Aacute
ENCODING 193
SWIDTH 1375 0
DWIDTH 11 0
BBX 9 7 1 0
BITMAP
FF80
6080
6000
7E00
6180
6180
FE00
ENDCHAR
STARTCHAR Acircumflex
ENCODING 194
SWIDTH 1375 0
DWIDTH 11 0
BBX 9 7 1 0
BITMAP
FE00
6180
6180
7E00
6180
6180
FE00
ENDCHAR
STARTCHAR Atilde
ENCODING 195
SWIDTH 1188 0
DWIDTH 10 0
BBX 8 7 1 0
BITMAP
FF
61
60
60
60
60
F0
ENDCHAR
STARTCHAR Adieresis
ENCODING 196
SWIDTH 1312 0
DWIDTH 14 0
BBX 12 8 1 -1
BITMAP
3FE0
10C0
10C0
10C0
10C0
20C0
FFF0
C030
ENDCHAR
STARTCHAR Aring
ENCODING 197
SWIDTH 1375 0
DWIDTH 11 0
BBX 9 7 1 0
BITMAP
FF80
6080
6400
7C00
6400
6080
FF80
ENDCHAR
STARTCHAR AE
ENCODING 198
SWIDTH 2062 0
DWIDTH 16 0
BBX 16 7 0 0
BITMAP
73CE
0990
05A0
0FF0
1998
318C
FBDF
ENDCHAR
STARTCHAR Ccedilla
ENCODING 199
SWIDTH 1062 0
DWIDTH 10 0
BBX 8 7 1 0
BITMAP
7E
C3
03
0E
03
C3
7E
ENDCHAR
STARTCHAR Egrave
ENCODING 200
SWIDTH 1562 0
DWIDTH 13 0
BBX 11 7 1 0
BITMAP
F1E0
61C0
62C0
64C0
68C0
70C0
F1E0
ENDCHAR
STARTCHAR Eacute
ENCODING 201
SWIDTH 1562 0
DWIDTH 13 0
BBX 11 9 1 0
BITMAP
1B00
0E00
F1E0
61C0
62C0
64C0
68C0
70C0
F1E0
ENDCHAR
STARTCHAR Ecircumflex
ENCODING 202
SWIDTH 1500 0
DWIDTH 12 0
BBX 10 7 1 0
BITMAP
F180
6200
6400
7C00
6600
6300
F7C0
ENDCHAR
STARTCHAR Edieresis
ENCODING 203
SWIDTH 1375 0
DWIDTH 12 0
BBX 11 7 0 0
BITMAP
3FE0
10C0
10C0
10C0
10C0
10C0
E1E0
ENDCHAR
STARTCHAR Igrave
ENCODING 204
SWIDTH 1875 0
DWIDTH 15 0
BBX 13 7 1 0
BITMAP
E038
7070
58B0
4D30
4630
4030
E078
ENDCHAR
STARTCHAR Iacute
ENCODING 205
SWIDTH 1625 0
DWIDTH 13 0
BBX 11 7 1 0
BITMAP
F1E0
60C0
60C0
7FC0
60C0
60C0
F1E0
ENDCHAR
STARTCHAR Icircumflex
ENCODING 206
SWIDTH 1500 0
DWIDTH 13 0
BBX 11 7 1 0
BITMAP
1F00
60C0
C060
C060
C060
60C0
1F00
ENDCHAR
STARTCHAR Idieresis
ENCODING 207
SWIDTH 1625 0
DWIDTH 13 0
BBX 11 7 1 0
BITMAP
FFE0
60C0
60C0
60C0
60C0
60C0
F1E0
ENDCHAR
STARTCHAR Eth
ENCODING 208
SWIDTH 1250 0
DWIDTH 11 0
BBX 9 7 1 0
BITMAP
FE00
6180
6180
7E00
6000
6000
F000
ENDCHAR
STARTCHAR Ntilde
ENCODING 209
SWIDTH 1438 0
DWIDTH 11 0
BBX 9 7 1 0
BITMAP
1E80
6180
C080
C000
C000
6180
1E00
ENDCHAR
STARTCHAR Ograve
ENCODING 210
SWIDTH 1375 0
DWIDTH 10 0
BBX 8 7 1 0
BITMAP
FF
99
18
18
18
18
3C
ENDCHAR
STARTCHAR Oacute
ENCODING 211
SWIDTH 1625 0
DWIDTH 13 0
BBX 11 7 1 0
BITMAP
F0E0
6040
3080
1900
0E00
0400
3800
ENDCHAR
STARTCHAR Ocircumflex
ENCODING 212
SWIDTH 1750 0
DWIDTH 16 0
BBX 14 8 1 -1
BITMAP
1FE0
6318
C30C
C30C
C30C
6318
1FE0
0300
ENDCHAR
STARTCHAR Otilde
ENCODING 213
SWIDTH 1688 0
DWIDTH 13 0
BBX 11 7 1 0
BITMAP
F1E0
3880
1D00
0E00
1380
21C0
F0E0
ENDCHAR
STARTCHAR Odieresis
ENCODING 214
SWIDTH 1625 0
DWIDTH 13 0
BBX 12 8 1 -1
BITMAP
F1E0
60C0
60C0
60C0
60C0
60C0
FFF0
0010
ENDCHAR
STARTCHAR multiply
ENCODING 215
SWIDTH 1625 0
DWIDTH 13 0
BBX 11 7 1 0
BITMAP
F1E0
60C0
60C0
3FC0
00C0
00C0
01E0
ENDCHAR
STARTCHAR Oslash
ENCODING 216
SWIDTH 2000 0
DWIDTH 16 0
BBX 16 7 0 0
BITMAP
F3CF
6186
6186
6186
6186
6186
FFFF
ENDCHAR
STARTCHAR Ugrave
ENCODING 217
SWIDTH 2000 0
DWIDTH 16 0
BBX 16 8 0 -1
BITMAP
F3CF
6186
6186
6186
6186
6186
FFFF
0003
ENDCHAR
STARTCHAR Uacute
ENCODING 218
SWIDTH 1500 0
DWIDTH 12 0
BBX 10 7 1 0
BITMAP
FC00
9800
1800
1F80
18C0
18C0
3F80
ENDCHAR
STARTCHAR Ucircumflex
ENCODING 219
SWIDTH 1875 0
DWIDTH 15 0
BBX 13 7 1 0
BITMAP
F078
6030
6030
7E30
6330
6330
FE78
ENDCHAR
STARTCHAR Udieresis
ENCODING 220
SWIDTH 1375 0
DWIDTH 10 0
BBX 8 7 1 0
BITMAP
F0
60
60
7E
63
63
FE
ENDCHAR
STARTCHAR Yacute
ENCODING 221
SWIDTH 1375 0
DWIDTH 10 0
BBX 8 7 1 0
BITMAP
7E
C3
03
1F
03
C3
7E
ENDCHAR
STARTCHAR Thorn
ENCODING 222
SWIDTH 2062 0
DWIDTH 16 0
BBX 15 7 0 0
BITMAP
F1F0
630C
6606
7E06
6606
630C
F1F0
ENDCHAR
STARTCHAR germandbls
ENCODING 223
SWIDTH 1500 0
DWIDTH 12 0
BBX 10 7 1 0
BITMAP
3FC0
6180
6180
3F80
1980
3180
E3C0
ENDCHAR
STARTCHAR agrave
ENCODING 224
SWIDTH 1000 0
DWIDTH 8 0
BBX 7 5 1 0
BITMAP
78
CC
3C
CC
76
ENDCHAR
STARTCHAR aacute
ENCODING 225
SWIDTH 1000 0
DWIDTH 8 0
BBX 7 7 1 0
BITMAP
3C
60
DC
E6
C6
C4
78
ENDCHAR
STARTCHAR acircumflex
ENCODING 226
SWIDTH 938 0
DWIDTH 8 0
BBX 7 5 1 0
BITMAP
FC
66
7C
66
FC
ENDCHAR
STARTCHAR atilde
ENCODING 227
SWIDTH 812 0
DWIDTH 7 0
BBX 6 5 1 0
BITMAP
FC
64
60
60
F0
ENDCHAR
STARTCHAR adieresis
ENCODING 228
SWIDTH 1062 0
DWIDTH 8 0
BBX 7 6 1 -1
BITMAP
7E
2C
2C
4C
FE
C6
ENDCHAR
STARTCHAR aring
ENCODING 229
SWIDTH 938 0
DWIDTH 7 0
BBX 6 5 1 0
BITMAP
78
CC
FC
C0
78
ENDCHAR
STARTCHAR ae
ENCODING 230
SWIDTH 1562 0
DWIDTH 13 0
BBX 12 5 1 0
BITMAP
CF30
6660
3FC0
6660
CF30
ENDCHAR
STARTCHAR ccedilla
ENCODING 231
SWIDTH 812 0
DWIDTH 8 0
BBX 7 5 1 0
BITMAP
7C
C6
1C
C6
7C
ENDCHAR
STARTCHAR egrave
ENCODING 232
SWIDTH 1125 0
DWIDTH 10 0
BBX 9 5 1 0
BITMAP
F380
6700
6B00
7300
E780
ENDCHAR
STARTCHAR eacute
ENCODING 233
SWIDTH 1125 0
DWIDTH 10 0
BBX 9 7 1 0
BITMAP
1A00
0C00
F380
6700
6B00
7300
E780
ENDCHAR
STARTCHAR ecircumflex
ENCODING 234
SWIDTH 1062 0
DWIDTH 9 0
BBX 8 5 1 0
BITMAP
F7
6C
7C
66
F3
ENDCHAR
STARTCHAR edieresis
ENCODING 235
SWIDTH 1062 0
DWIDTH 9 0
BBX 8 5 1 0
BITMAP
7F
26
26
26
CF
ENDCHAR
STARTCHAR igrave
ENCODING 236
SWIDTH 1375 0
DWIDTH 12 0
BBX 11 5 1 0
BITMAP
E0E0
71C0
5AC0
4CC0
E1E0
ENDCHAR
STARTCHAR iacute
ENCODING 237
SWIDTH 1125 0
DWIDTH 10 0
BBX 9 5 1 0
BITMAP
F780
6300
7F00
6300
F780
ENDCHAR
STARTCHAR icircumflex
ENCODING 238
SWIDTH 1000 0
DWIDTH 8 0
BBX 7 5 1 0
BITMAP
7C
C6
C6
C6
7C
ENDCHAR
STARTCHAR idieresis
ENCODING 239
SWIDTH 1125 0
DWIDTH 10 0
BBX 9 5 1 0
BITMAP
FF80
6300
6300
6300
F780
ENDCHAR
STARTCHAR eth
ENCODING 240
SWIDTH 1125 0
DWIDTH 9 0
BBX 8 6 1 -1
BITMAP
FE
63
63
7C
60
F0
ENDCHAR
STARTCHAR ntilde
ENCODING 241
SWIDTH 875 0
DWIDTH 6 0
BBX 5 5 1 0
BITMAP
30
58
C0
C8
70
ENDCHAR
STARTCHAR ograve
ENCODING 242
SWIDTH 938 0
DWIDTH 9 0
BBX 8 5 1 0
BITMAP
FF
99
18
18
3C
ENDCHAR
STARTCHAR oacute
ENCODING 243
SWIDTH 1062 0
DWIDTH 9 0
BBX 8 6 1 -1
BITMAP
F7
62
34
1C
08
30
ENDCHAR
STARTCHAR ocircumflex
ENCODING 244
SWIDTH 1250 0
DWIDTH 9 0
BBX 8 7 1 -1
BITMAP
10
7E
DB
DB
DB
7E
18
ENDCHAR
STARTCHAR otilde
ENCODING 245
SWIDTH 938 0
DWIDTH 8 0
BBX 7 5 1 0
BITMAP
E6
6C
38
6C
CE
ENDCHAR
STARTCHAR odieresis
ENCODING 246
SWIDTH 1125 0
DWIDTH 10 0
BBX 9 6 1 -1
BITMAP
F780
6300
6300
6300
FF80
0180
ENDCHAR
STARTCHAR divide
ENCODING 247
SWIDTH 1125 0
DWIDTH 10 0
BBX 9 5 1 0
BITMAP
F780
6300
3F00
0300
0780
ENDCHAR
STARTCHAR oslash
ENCODING 248
SWIDTH 1688 0
DWIDTH 15 0
BBX 14 5 1 0
BITMAP
F7BC
6318
6318
6318
FFFC
ENDCHAR
STARTCHAR ugrave
ENCODING 249
SWIDTH 1688 0
DWIDTH 16 0
BBX 15 6 1 -1
BITMAP
F7BC
6318
6318
6318
FFFE
0006
ENDCHAR
STARTCHAR uacute
ENCODING 250
SWIDTH 1188 0
DWIDTH 10 0
BBX 9 5 1 0
BITMAP
FC00
9800
1F00
1980
3F00
ENDCHAR
STARTCHAR ucircumflex
ENCODING 251
SWIDTH 1438 0
DWIDTH 12 0
BBX 11 5 1 0
BITMAP
F1E0
60C0
7CC0
66C0
FDE0
ENDCHAR
STARTCHAR udieresis
ENCODING 252
SWIDTH 1000 0
DWIDTH 8 0
BBX 7 5 1 0
BITMAP
F0
60
7C
66
FC
ENDCHAR
STARTCHAR yacute
ENCODING 253
SWIDTH 812 0
DWIDTH 8 0
BBX 7 5 1 0
BITMAP
7C
C6
1E
C6
7C
ENDCHAR
STARTCHAR thorn
ENCODING 254
SWIDTH 1438 0
DWIDTH 13 0
BBX 12 5 1 0
BITMAP
F3E0
6630
7E30
6630
F3E0
ENDCHAR
STARTCHAR ydieresis
ENCODING 255
SWIDTH 1000 0
DWIDTH 10 0
BBX 9 5 1 0
BITMAP
3F80
6300
3F00
3300
E780
ENDCHAR
ENDFONT
